<?xml version="1.0" encoding="utf-8"?>
<!-- Generator: Adobe Illustrator 24.0.1, SVG Export Plug-In . SVG Version: 6.00 Build 0)  -->
<svg version="1.1" id="Camada_1" xmlns="http://www.w3.org/2000/svg" xmlns:xlink="http://www.w3.org/1999/xlink" x="0px" y="0px"
	 viewBox="0 0 1080 1080" style="enable-background:new 0 0 1080 1080;" xml:space="preserve">
<style type="text/css">
	.st0{display:none;fill:#6A6A6A;}
	.st1{fill:#6A6A6A;}
</style>
<path id="path1_14_" class="st0" d="M159.19,527.57c0,209.44,171.36,380.81,380.81,380.81s380.81-171.36,380.81-380.81
	S749.44,146.76,540,146.76S159.19,318.13,159.19,527.57z M540,809.37v-563.6c156.13,0,281.8,125.67,281.8,281.8
	S696.13,809.37,540,809.37z"/>
<path id="path1_13_" class="st0" d="M878.37,709.55l19.82,39.63c5.4,10.81,1.8,25.22-10.81,30.63l-91.88,46.84
	c-23.42,10.81-50.44,1.8-61.25-21.62l-88.28-187.36H449.61c-21.62,0-41.44-16.21-45.04-37.83
	c-46.84-335.09-45.04-313.47-45.04-322.48c0-50.44,43.24-91.88,93.68-90.08c46.84,1.8,84.67,41.44,86.47,88.28
	s-32.43,84.67-77.47,91.88l7.21,46.84h183.76c12.61,0,21.62,10.81,21.62,21.62v45.04c0,12.61-10.81,21.62-21.62,21.62H483.84
	l7.21,45.04H676.6c9.01,0,16.21,1.8,23.42,7.21c7.21,5.4,12.61,10.81,16.21,18.02l81.07,172.95l50.44-25.22
	C858.56,695.14,872.97,698.74,878.37,709.55z M617.15,662.71h-34.23c-10.81,75.66-77.47,135.12-156.73,135.12
	c-86.47,0-156.73-70.26-156.73-158.54c0-57.65,32.43-109.89,79.27-136.92c-5.4-36.03-9.01-66.66-12.61-93.68
	c-91.88,36.03-156.73,126.11-156.73,230.6c0,136.92,111.7,248.61,248.61,248.61c100.89,0,189.16-61.25,226.99-147.73L617.15,662.71z
	"/>
<path class="st0" d="M293.24,650.95H169.86c-22.62,0-41.13,18.51-41.13,41.13v123.38c0,22.62,18.51,41.13,41.13,41.13h123.38
	c22.62,0,41.13-18.51,41.13-41.13V692.08C334.36,669.46,315.86,650.95,293.24,650.95z M262.39,548.13h246.76v61.69h61.69v-61.69
	h246.76v61.69h61.69V535.8c0-26.73-22.62-49.35-49.35-49.35h-259.1v-82.25h51.41c22.62,0,41.13-18.51,41.13-41.13V239.68
	c0-22.62-18.51-41.13-41.13-41.13H457.75c-22.62,0-41.13,18.51-41.13,41.13v123.38c0,22.62,18.51,41.13,41.13,41.13h51.41v82.25
	h-259.1c-26.73,0-49.35,22.62-49.35,49.35v74.03h61.69V548.13z M601.69,650.95H478.31c-22.62,0-41.13,18.51-41.13,41.13v123.38
	c0,22.62,18.51,41.13,41.13,41.13h123.38c22.62,0,41.13-18.51,41.13-41.13V692.08C642.82,669.46,624.31,650.95,601.69,650.95z
	 M910.14,650.95H786.76c-22.62,0-41.13,18.51-41.13,41.13v123.38c0,22.62,18.51,41.13,41.13,41.13h123.38
	c22.62,0,41.13-18.51,41.13-41.13V692.08C951.27,669.46,932.76,650.95,910.14,650.95z"/>
<path id="path1_12_" class="st0" d="M108.95,801.88l205.73-548.61h97.97l205.73,548.61h-94.05l-49.96-140.09H252.96l-49.96,140.09
	H108.95z M281.37,582.43h164.58l-80.33-227.28h-3.92L281.37,582.43z M657.56,566.76v-78.37h313.49v78.37H657.56z"/>
<path id="path1_11_" class="st1" d="M120.5,794.52l200.21-533.9h95.34l200.21,533.9h-91.53l-48.62-136.34H260.65l-48.62,136.34
	H120.5z M288.3,580.96h160.17l-78.18-221.19h-3.81L288.3,580.96z M768.82,680.11V565.71H654.41v-76.27h114.41V375.03h76.27v114.41
	H959.5v76.27H845.09v114.41H768.82z"/>
<path id="path1_10_" class="st0" d="M285.29,801.88l205.73-548.61h97.97l205.73,548.61h-94.05L650.7,661.78H429.3l-49.96,140.09
	L285.29,801.88z M457.71,582.43h164.58l-80.33-227.28h-3.92L457.71,582.43z"/>
</svg>
